<?xml version="1.0" encoding="UTF-8"?>
<!DOCTYPE svg PUBLIC "-//W3C//DTD SVG 1.0//EN" "http://www.w3.org/TR/2001/REC-SVG-20010904/DTD/svg10.dtd">
<!-- Creator: CorelDRAW X6 -->
<svg xmlns="http://www.w3.org/2000/svg" xml:space="preserve" width="22px" height="22px" version="1.0" style="shape-rendering:geometricPrecision; text-rendering:geometricPrecision; image-rendering:optimizeQuality; fill-rule:evenodd; clip-rule:evenodd"
viewBox="0 0 22000 21955"
 xmlns:xlink="http://www.w3.org/1999/xlink">
 <defs>
  <style type="text/css">
   <![CDATA[
    .fil0 {fill:none}
    .fil1 {fill:#485891;fill-rule:nonzero}
   ]]>
  </style>
 </defs>
 <g id="Слой_x0020_1">
  <metadata id="CorelCorpID_0Corel-Layer"/>
  <g id="_432889472">
   <rect class="fil0" width="22000" height="21955"/>
   <path class="fil1" d="M3963 4008l5182 0c734,0 1336,601 1336,1335l0 1763 0 2952c0,2228 -463,3988 -1390,5279 -932,1290 -2512,2425 -4753,3413l-1710 -3216c1389,-648 2346,-1297 2870,-1945 519,-642 809,-1408 871,-2284l-2406 0c-734,0 -1335,-601 -1335,-1335l0 -4627c0,-734 601,-1335 1335,-1335zm9506 0l5182 0c734,0 1336,601 1336,1335l0 1763 0 2952c0,2228 -463,3988 -1390,5279 -932,1290 -2512,2425 -4753,3413l-1710 -3216c1389,-648 2346,-1297 2870,-1945 519,-642 809,-1408 871,-2284l-2406 0c-734,0 -1335,-601 -1335,-1335l0 -4627c0,-734 601,-1335 1335,-1335z"/>
  </g>
 </g>
</svg>
