<?xml version="1.0" encoding="UTF-8"?>
<!DOCTYPE svg PUBLIC "-//W3C//DTD SVG 1.0//EN" "http://www.w3.org/TR/2001/REC-SVG-20010904/DTD/svg10.dtd">
<!-- Creator: CorelDRAW X6 -->
<svg xmlns="http://www.w3.org/2000/svg" xml:space="preserve" width="22px" height="22px" version="1.0" style="shape-rendering:geometricPrecision; text-rendering:geometricPrecision; image-rendering:optimizeQuality; fill-rule:evenodd; clip-rule:evenodd"
viewBox="0 0 22000 21955"
 xmlns:xlink="http://www.w3.org/1999/xlink">
 <defs>
  <style type="text/css">
   <![CDATA[
    .fil0 {fill:none}
    .fil1 {fill:#485891}
   ]]>
  </style>
 </defs>
 <g id="Слой_x0020_1">
  <metadata id="CorelCorpID_0Corel-Layer"/>
  <g id="_432889280">
   <rect class="fil0" width="22000" height="21955"/>
   <path class="fil1" d="M16226 10106c776,393 1480,938 1909,1707 490,878 706,1839 706,2841 0,1978 -693,3660 -2342,4801 -1852,1281 -4456,1566 -6648,1566 -1032,0 -2065,-31 -3095,-95 -1090,-68 -2174,-228 -3242,-455l-355 -76 0 -18898 366 -69c953,-178 1919,-295 2885,-371 965,-76 1933,-123 2901,-123 1122,0 2252,74 3359,263 950,163 1891,450 2729,932 767,441 1396,1035 1851,1793 495,826 672,1779 672,2731 0,1463 -628,2601 -1696,3453zm-8062 2509l0 3985c191,17 383,29 574,39 389,19 778,26 1167,26 936,0 2007,-99 2866,-499 672,-312 903,-874 903,-1593 0,-626 -187,-1144 -747,-1462 -721,-411 -1749,-496 -2562,-496l-2201 0zm0 -4113l1606 0c731,0 1909,-51 2555,-436 460,-275 619,-700 619,-1224 0,-521 -152,-946 -627,-1199 -648,-344 -1611,-407 -2331,-407 -384,0 -768,5 -1152,14 -223,4 -447,13 -670,29l0 3223z"/>
  </g>
 </g>
</svg>
