<?xml version="1.0" encoding="UTF-8"?>
<!DOCTYPE svg PUBLIC "-//W3C//DTD SVG 1.0//EN" "http://www.w3.org/TR/2001/REC-SVG-20010904/DTD/svg10.dtd">
<!-- Creator: CorelDRAW X6 -->
<svg xmlns="http://www.w3.org/2000/svg" xml:space="preserve" width="22px" height="22px" version="1.0" style="shape-rendering:geometricPrecision; text-rendering:geometricPrecision; image-rendering:optimizeQuality; fill-rule:evenodd; clip-rule:evenodd"
viewBox="0 0 22000 21955"
 xmlns:xlink="http://www.w3.org/1999/xlink">
 <defs>
  <style type="text/css">
   <![CDATA[
    .fil0 {fill:none}
    .fil1 {fill:#485891}
   ]]>
  </style>
 </defs>
 <g id="Слой_x0020_1">
  <metadata id="CorelCorpID_0Corel-Layer"/>
  <g id="_432888536">
   <rect class="fil0" width="22000" height="21955"/>
   <path class="fil1" d="M18295 18140l-14590 0 0 -2072 3408 -3183 1572 1690 5024 -5468 4586 4329 0 4704zm-11091 -11946c859,0 1556,697 1556,1556 0,860 -697,1556 -1556,1556 -860,0 -1556,-696 -1556,-1556 0,-859 696,-1556 1556,-1556zm-5298 -5331l18188 0c586,0 1066,479 1066,1065l0 18147c0,586 -480,1066 -1066,1066l-18188 0c-586,0 -1066,-480 -1066,-1066l0 -18147c0,-586 480,-1065 1066,-1065zm17708 18765l-17197 0 0 -17174 17197 0 0 17174z"/>
  </g>
 </g>
</svg>
