<?xml version="1.0" encoding="UTF-8"?>
<!DOCTYPE svg PUBLIC "-//W3C//DTD SVG 1.0//EN" "http://www.w3.org/TR/2001/REC-SVG-20010904/DTD/svg10.dtd">
<!-- Creator: CorelDRAW X6 -->
<svg xmlns="http://www.w3.org/2000/svg" xml:space="preserve" width="22px" height="22px" version="1.0" style="shape-rendering:geometricPrecision; text-rendering:geometricPrecision; image-rendering:optimizeQuality; fill-rule:evenodd; clip-rule:evenodd"
viewBox="0 0 22000 22001"
 xmlns:xlink="http://www.w3.org/1999/xlink">
 <defs>
  <style type="text/css">
   <![CDATA[
    .fil0 {fill:none}
    .fil1 {fill:#485891;fill-rule:nonzero}
   ]]>
  </style>
 </defs>
 <g id="Слой_x0020_1">
  <metadata id="CorelCorpID_0Corel-Layer"/>
  <g id="_432909704">
   <rect class="fil0" width="22000" height="22000"/>
   <path class="fil1" d="M17658 10565l2958 2964c1324,1326 1324,3488 0,4814l-2288 2293c-1324,1326 -3481,1327 -4804,0l-2959 -2964c-1323,-1327 -1323,-3488 0,-4814l278 -278 -1420 -1422c-793,795 -1499,1272 -2679,1272 -870,0 -1740,-331 -2402,-994l-2958 -2965c-1324,-1326 -1324,-3487 0,-4813l2288 -2294c1324,-1326 3480,-1326 4804,0l2959 2965c1349,1352 1344,3466 -110,4923l1419 1423c1455,-1458 3565,-1462 4914,-110zm-10136 -1313l-208 -207c-1251,-1255 650,-3160 1902,-1906l207 208c344,-344 458,-764 110,-1113l-2959 -2964c-272,-274 -727,-274 -1000,0l-2289 2293c-273,274 -273,729 0,1003l2959 2964c522,524 1016,-16 1278,-278zm7124 3328l207 208c1252,1254 -650,3160 -1901,1906l-208 -208c-261,262 -799,757 -277,1280l2959 2965c272,273 727,273 1000,0l2289 -2294c273,-273 273,-729 0,-1002l-2959 -2965c-348,-349 -766,-234 -1110,110z"/>
  </g>
 </g>
</svg>
