<?xml version="1.0" encoding="UTF-8"?>
<!DOCTYPE svg PUBLIC "-//W3C//DTD SVG 1.0//EN" "http://www.w3.org/TR/2001/REC-SVG-20010904/DTD/svg10.dtd">
<!-- Creator: CorelDRAW X6 -->
<svg xmlns="http://www.w3.org/2000/svg" xml:space="preserve" width="22px" height="22px" version="1.0" style="shape-rendering:geometricPrecision; text-rendering:geometricPrecision; image-rendering:optimizeQuality; fill-rule:evenodd; clip-rule:evenodd"
viewBox="0 0 22000 22000"
 xmlns:xlink="http://www.w3.org/1999/xlink">
 <defs>
  <style type="text/css">
   <![CDATA[
    .fil0 {fill:none}
    .fil1 {fill:#485891}
   ]]>
  </style>
 </defs>
 <g id="Слой_x0020_1">
  <metadata id="CorelCorpID_0Corel-Layer"/>
  <g id="_432912824">
   <rect class="fil0" width="22000" height="22000"/>
   <path class="fil1" d="M2220 3825l16368 0 0 2466 -16368 0 0 -2466zm1719 11884l717 0 0 2466 -717 0 0 -2466zm1070 0l717 0 0 2466 -717 0 0 -2466zm1071 0l717 0 0 2466 -717 0 0 -2466zm-1071 -3811l717 0 0 2465 -717 0 0 -2465zm1071 0l717 0 0 2465 -717 0 0 -2465zm0 -3812l717 0 0 2465 -717 0 0 -2465zm1632 9817c0,103 -33,181 -98,235 -65,54 -139,81 -221,81 -82,0 -156,-27 -221,-81 -65,-54 -98,-132 -98,-235 0,-103 33,-182 98,-236 65,-53 139,-80 221,-80 82,0 156,27 221,80 65,54 98,133 98,236zm0 -3853c0,103 -33,181 -98,235 -65,54 -139,81 -221,81 -82,0 -156,-27 -221,-81 -65,-54 -98,-132 -98,-235 0,-104 33,-182 98,-236 65,-54 139,-81 221,-81 82,0 156,27 221,81 65,54 98,132 98,236zm0 -3854c0,104 -33,182 -98,236 -65,54 -139,81 -221,81 -82,0 -156,-27 -221,-81 -65,-54 -98,-132 -98,-236 0,-103 33,-181 98,-235 65,-54 139,-81 221,-81 82,0 156,27 221,81 65,54 98,132 98,235zm1667 5513l9209 0 0 2466 -9209 0 0 -2466zm0 -3811l9209 0 0 2465 -9209 0 0 -2465zm0 -3812l9209 0 0 2465 -9209 0 0 -2465z"/>
  </g>
 </g>
</svg>
