<?xml version="1.0" encoding="UTF-8"?>
<!DOCTYPE svg PUBLIC "-//W3C//DTD SVG 1.0//EN" "http://www.w3.org/TR/2001/REC-SVG-20010904/DTD/svg10.dtd">
<!-- Creator: CorelDRAW X6 -->
<svg xmlns="http://www.w3.org/2000/svg" xml:space="preserve" width="22px" height="22px" version="1.0" style="shape-rendering:geometricPrecision; text-rendering:geometricPrecision; image-rendering:optimizeQuality; fill-rule:evenodd; clip-rule:evenodd"
viewBox="0 0 22000 22000"
 xmlns:xlink="http://www.w3.org/1999/xlink">
 <defs>
  <style type="text/css">
   <![CDATA[
    .fil0 {fill:none}
    .fil1 {fill:#485891}
   ]]>
  </style>
 </defs>
 <g id="Слой_x0020_1">
  <metadata id="CorelCorpID_0Corel-Layer"/>
  <g id="_432885704">
   <rect class="fil0" width="22000" height="22000"/>
   <path class="fil1" d="M1905 841l18190 0c585,0 1065,480 1065,1067l0 18185c0,587 -480,1067 -1065,1067l-18190 0c-585,0 -1065,-480 -1065,-1067l0 -18185c0,-587 480,-1067 1065,-1067zm512 6633l4777 0 0 -5039 -4777 0 0 5039zm6036 0l5094 0 0 -5039 -5094 0 0 5039zm6353 0l4808 0 0 -5039 -4808 0 0 5039zm4808 1259l-4808 0 0 5094 4808 0 0 -5094zm-6067 0l-5094 0 0 5094 5094 0 0 -5094zm-6353 0l-4777 0 0 5094 4777 0 0 -5094zm7612 6353l0 4558 4808 0 0 -4558 -4808 0zm-1259 4558l0 -4558 -5094 0 0 4558 5094 0zm-6353 -4558l-4777 0 0 4558 4777 0 0 -4558z"/>
  </g>
 </g>
</svg>
