<?xml version="1.0" encoding="UTF-8"?>
<!DOCTYPE svg PUBLIC "-//W3C//DTD SVG 1.0//EN" "http://www.w3.org/TR/2001/REC-SVG-20010904/DTD/svg10.dtd">
<!-- Creator: CorelDRAW X6 -->
<svg xmlns="http://www.w3.org/2000/svg" xml:space="preserve" width="22px" height="22px" version="1.0" style="shape-rendering:geometricPrecision; text-rendering:geometricPrecision; image-rendering:optimizeQuality; fill-rule:evenodd; clip-rule:evenodd"
viewBox="0 0 22000 22000"
 xmlns:xlink="http://www.w3.org/1999/xlink">
 <defs>
  <style type="text/css">
   <![CDATA[
    .fil0 {fill:none}
    .fil1 {fill:#485891}
   ]]>
  </style>
 </defs>
 <g id="Слой_x0020_1">
  <metadata id="CorelCorpID_0Corel-Layer"/>
  <g id="_432889424">
   <rect class="fil0" width="22000" height="22000"/>
   <path class="fil1" d="M2220 3825l16368 0 0 2466 -16368 0 0 -2466zm3795 11884c679,0 1230,552 1230,1233 0,681 -551,1233 -1230,1233 -680,0 -1230,-552 -1230,-1233 0,-681 550,-1233 1230,-1233zm0 -3811c679,0 1230,551 1230,1232 0,681 -551,1233 -1230,1233 -680,0 -1230,-552 -1230,-1233 0,-681 550,-1232 1230,-1232zm0 -3812c679,0 1230,552 1230,1232 0,681 -551,1233 -1230,1233 -680,0 -1230,-552 -1230,-1233 0,-680 550,-1232 1230,-1232zm3364 7623l9209 0 0 2466 -9209 0 0 -2466zm0 -3811l9209 0 0 2465 -9209 0 0 -2465zm0 -3812l9209 0 0 2465 -9209 0 0 -2465z"/>
  </g>
 </g>
</svg>
