<?xml version="1.0" encoding="UTF-8"?>
<!DOCTYPE svg PUBLIC "-//W3C//DTD SVG 1.0//EN" "http://www.w3.org/TR/2001/REC-SVG-20010904/DTD/svg10.dtd">
<!-- Creator: CorelDRAW X6 -->
<svg xmlns="http://www.w3.org/2000/svg" xml:space="preserve" width="22px" height="22px" version="1.0" style="shape-rendering:geometricPrecision; text-rendering:geometricPrecision; image-rendering:optimizeQuality; fill-rule:evenodd; clip-rule:evenodd"
viewBox="0 0 22000 21978"
 xmlns:xlink="http://www.w3.org/1999/xlink">
 <defs>
  <style type="text/css">
   <![CDATA[
    .fil0 {fill:none}
    .fil1 {fill:#485891}
   ]]>
  </style>
 </defs>
 <g id="Слой_x0020_1">
  <metadata id="CorelCorpID_0Corel-Layer"/>
  <g id="_432887336">
   <rect class="fil0" width="22000" height="21978"/>
   <path class="fil1" d="M1906 863l18188 0c586,0 1066,480 1066,1067l0 18166c0,586 -480,1066 -1066,1066l-18188 0c-586,0 -1066,-480 -1066,-1066l0 -18166c0,-587 480,-1067 1066,-1067zm5995 4998l7472 4772c280,178 280,581 0,760l-7472 4773c-489,312 -879,63 -879,-361l0 -9584c0,-424 389,-672 879,-360zm11713 13787l-17197 0 0 -17192 17197 0 0 17192z"/>
  </g>
 </g>
</svg>
